<!DOCTYPE svg PUBLIC "-//W3C//DTD SVG 1.1//EN" "http://www.w3.org/Graphics/SVG/1.1/DTD/svg11.dtd">
<!-- Uploaded to: SVG Repo, www.svgrepo.com, Transformed by: SVG Repo Mixer Tools -->
<svg fill="#0000FF" version="1.1" id="Layer_1" xmlns="http://www.w3.org/2000/svg" xmlns:xlink="http://www.w3.org/1999/xlink" viewBox="0 0 512.001 512.001" xml:space="preserve" width="800px" height="800px">
<g id="SVGRepo_bgCarrier" stroke-width="0"/>
<g id="SVGRepo_tracerCarrier" stroke-linecap="round" stroke-linejoin="round"/>
<g id="SVGRepo_iconCarrier"> <g> <g> <g> <rect x="0" y="496.188" width="512.001" height="15.75"/> <polygon points="399.875,488.062 399.875,248.187 112.125,248.187 112.125,488.062 127.875,488.062 127.875,263.937 384.125,263.937 384.125,488.062 "/> <polygon points="176,287.937 176,272.187 144,272.187 144,287.937 152.125,287.937 152.125,472.188 144,472.188 144,487.938 176,487.938 176,472.188 167.875,472.188 167.875,287.937 "/> <polygon points="224,287.937 224,272.187 192,272.187 192,287.937 200.125,287.937 200.125,472.188 192,472.188 192,487.938 224,487.938 224,472.188 215.875,472.188 215.875,287.937 "/> <polygon points="272,287.937 272,272.187 240,272.187 240,287.937 248.126,287.937 248.126,472.188 240,472.188 240,487.938 272,487.938 272,472.188 263.876,472.188 263.876,287.937 "/> <polygon points="320,287.937 320,272.187 288,272.187 288,287.937 296.124,287.937 296.124,472.188 288,472.188 288,487.938 320,487.938 320,472.188 311.875,472.188 311.875,287.937 "/> <polygon points="368.001,287.937 368.001,272.187 359.875,272.187 359.875,272.063 344.125,272.063 344.125,272.187 336,272.187 336,287.937 344.125,287.937 344.125,472.188 336,472.188 336,487.938 368.001,487.938 368.001,472.188 359.875,472.188 359.875,287.937 "/> <rect x="96.002" y="224.186" width="319.998" height="15.75"/> <rect x="0" y="312.186" width="104.003" height="15.75"/> <path d="M439.874,170.305l-175.999-56.001V0.063h-15.75v114.242l-176.001,56v45.633h367.75V170.305z M87.874,200.188v-18.367 l168.125-53.494l168.125,53.494v18.367H87.874z"/> <polygon points="359.875,0.188 272,0.188 272,15.938 344.125,15.938 344.125,40.188 272,40.188 272,55.938 359.875,55.938 "/> <polygon points="384.125,64.188 312,64.188 312,79.938 399.875,79.938 399.875,24.188 368.001,24.188 368.001,39.938 384.125,39.938 "/> <rect x="248.126" y="160.062" width="15.75" height="16"/> <rect x="8.015" y="336.041" transform="matrix(1 0.0032 -0.0032 1 1.1009 -0.1647)" width="88.001" height="15.75"/> <rect x="8.019" y="416.324" transform="matrix(1 0.0032 -0.0032 1 1.3575 -0.1643)" width="88.001" height="15.75"/> <rect x="24.125" y="368.067" width="15.75" height="32"/> <rect x="64.124" y="368.067" width="15.75" height="32"/> <rect x="24.125" y="448.066" width="15.75" height="32.001"/> <rect x="64.124" y="448.066" width="15.75" height="32.001"/> <rect x="407.999" y="312.186" width="104.003" height="15.75"/> <rect x="416.017" y="336.023" transform="matrix(-1 -0.0032 0.0032 -1 918.9324 689.2661)" width="88.001" height="15.75"/> <rect x="416.021" y="416.307" transform="matrix(1 0.0032 -0.0032 1 1.3595 -1.4696)" width="88.001" height="15.75"/> <rect x="432.128" y="368.067" width="15.75" height="32"/> <rect x="472.122" y="368.067" width="15.75" height="32"/> <rect x="432.128" y="448.066" width="15.75" height="32.001"/> <rect x="472.122" y="448.066" width="15.75" height="32.001"/> </g> </g> </g> </g>
</svg>