<svg xmlns="http://www.w3.org/2000/svg" version="1.1" xmlns:xlink="http://www.w3.org/1999/xlink" xmlns:svgjs="http://svgjs.com/svgjs" width="1440" height="560" preserveAspectRatio="none" viewBox="0 0 1440 560"><g mask="url(&quot;#SvgjsMask1000&quot;)" fill="none"><rect width="1440" height="560" x="0" y="0" fill="#0e2a47"></rect><path d="M0,360.469C82.441,357.953,174.985,424.625,241.902,376.407C309.572,327.647,270.775,215.347,306.196,139.835C342.194,63.092,453.848,20.094,448.727,-64.517C443.687,-147.787,344.648,-189.042,282.895,-245.13C228.668,-294.383,180.363,-354.385,109.431,-372.689C39.453,-390.747,-31.336,-363.192,-101.07,-344.214C-172.213,-324.852,-244.209,-307.788,-301.149,-260.947C-364.889,-208.512,-433.477,-145.653,-442.209,-63.58C-450.905,18.147,-377.468,82.076,-345.712,157.881C-312.606,236.909,-325.506,348.149,-251.582,391.469C-177.175,435.071,-86.201,363.1,0,360.469" fill="#0b2239"></path><path d="M1440 1267.192C1574.306 1268.513 1714.951 1233.0320000000002 1814.7939999999999 1143.192 1909.617 1057.8690000000001 1926.108 920.6859999999999 1961.337 798.087 1991.6399999999999 692.631 2023.987 586.854 2005.748 478.658 1987.768 371.999 1926.2069999999999 281.615 1859.87 196.18099999999998 1790.263 106.53500000000003 1720.107 8.573999999999955 1612.567-27.711000000000013 1503.489-64.51499999999999 1381.284-45.90700000000004 1275.253-1.0750000000000455 1175.532 41.089000000000055 1121.618 142.05399999999997 1040.7640000000001 214.06 944.8389999999999 299.487 780.092 335.499 755.706 461.613 731.531 586.633 874.934 678.075 928.72 793.494 981.942 907.701 977.4870000000001 1050.231 1069.914 1135.864 1167.92 1226.6660000000002 1306.401 1265.8780000000002 1440 1267.192" fill="#113255"></path></g><defs><mask id="SvgjsMask1000"><rect width="1440" height="560" fill="#ffffff"></rect></mask></defs></svg>