<?xml version="1.0" encoding="utf-8"?>
<svg viewBox="61.584 214.956 365.435 89.698" xmlns="http://www.w3.org/2000/svg" xmlns:xlink="http://www.w3.org/1999/xlink">
  <path id="_BATRyMAZJLXPz1LAsjwes" fill="#500df8" transform="matrix(0.507428, 0, 0, 0.507428, 61.583675, 214.955566)" data-type="circle" data-cx="88.385" data-cy="88.385" data-r="88.385" d="M88.385,88.385m-88.385,0a88.385,88.385 0 1, 0 176.77,0a88.385,88.385 0 1, 0 -176.77,0" data-uid="o_f419l85he_4"/>
  <path id="_Xc3C9J8BZYW5QKfviSALD" d="M91.019 40.902c-1.945 0-3.521-1.576-3.521-3.52c0-0.555 0.14-1.073 0.369-1.54c-3.819-9.117-10.873-16.544-19.729-20.836  v11.815l-7.038 7.04l2.348 3.521h15.251v8.799h11.908c-0.072-0.502-0.117-1.011-0.2-1.509l3.456-0.645  c0.412 2.422 0.674 4.894 0.674 7.433c0 24.299-19.697 43.996-43.995 43.996c-19.457 0-35.921-12.646-41.727-30.156  c-1.325-0.504-2.271-1.777-2.271-3.279c0-1.944 1.576-3.521 3.52-3.521c1.943 0 3.52 1.576 3.52 3.521  c0 1.08-0.496 2.031-1.261 2.678c0.78 2.253 1.774 4.406 2.92 6.459l10.659-9.137v-12.32h10.56v-7.041h-7.04v-7.039H13.284  c-2.071 4.864-3.221 10.217-3.221 15.839c0 0.949 0.078 1.879 0.142 2.812l-3.487 0.649c-0.09-1.146-0.175-2.294-0.175-3.464  c0-24.298 19.698-43.997 43.998-43.997c18.04 0 33.493 10.88 40.282 26.417c0.065-0.003 0.127-0.019 0.195-0.019  c1.943 0 3.518 1.576 3.518 3.521C94.536 39.326 92.962 40.902 91.019 40.902z M75.179 40.902H64.618v10.559h10.561V40.902z   M91.019 51.461c0-0.594-0.058-1.173-0.085-1.759H78.698v5.279h-7.041l-0.018 9.419l-2.995 3.325L80.72 78.37  C87.105 71.215 91.019 61.807 91.019 51.461z M17.288 74.433c7.295 10.562 19.443 17.507 33.253 17.507  c10.711 0 20.424-4.19 27.663-10.984L66.394 70.397L62.86 74.34h-8.799v3.521H36.462v-5.28l-7.92-7.92l-0.88 0.881L17.288 74.433z   M50.541 74.34V63.781h-10.56V74.34H50.541z M29.422 53.22v6.802l7.04 7.039v-6.8h17.599v10.56H61.1l7.038-7.039V54.98H61.1V40.902  l-3.519-5.279H47.021v7.039h-7.04V53.22H29.422z M32.941 35.623v3.519h10.56v-10.56H39.98h-7.04L32.941 35.623L32.941 35.623z   M36.462 13.551c-9.193 3.417-16.828 10.037-21.474 18.552h14.434v-7.041l0 0h7.04V13.551z M64.618 13.529  c-4.384-1.633-9.12-2.544-14.077-2.544c-3.661 0-7.189 0.53-10.561 1.438v12.639h7.04v7.041h10.561l7.037-7.041V13.529z" fill="#ffffff" transform="matrix(0.840395, 0, 0, 0.840395, 64.370468, 216.784912)" data-uid="o_f419l85he_5"/>
  <path text="COLLECTI" text-anchor="start" font-size="100" letter-spacing="0" side="left" offset="0" dx="0" dy="0" space="preserve" font-family="Montserrat" font-scale="contain" transform="matrix(0.511313, 0, 0, 0.511313, 169.930038, 279.776154)" x="0" y="0" fill="#500df8" font-weight="700" data-fl-textpath="" id="_8aQbwXwIqHgRNT3mfYdpv" data-uid="o_f419l85he_6" d="M 41.8 1.2Q 31.1 1.2  22.45-3.45Q 13.8-8.1  8.85-16.35Q 3.9-24.6  3.9-35L 3.9-35Q 3.9-45.4  8.85-53.65Q 13.8-61.9  22.45-66.55Q 31.1-71.2  41.9-71.2L 41.9-71.2Q 51-71.2  58.35-68Q 65.7-64.8  70.7-58.8L 70.7-58.8L 60.3-49.2Q 53.2-57.4  42.7-57.4L 42.7-57.4Q 36.2-57.4  31.1-54.55Q 26-51.7  23.15-46.6Q 20.3-41.5  20.3-35L 20.3-35Q 20.3-28.5  23.15-23.4Q 26-18.3  31.1-15.45Q 36.2-12.6  42.7-12.6L 42.7-12.6Q 53.2-12.6  60.3-20.9L 60.3-20.9L 70.7-11.3Q 65.7-5.2  58.3-2Q 50.9 1.2  41.8 1.2L 41.8 1.2ZM 114 1.2Q 103.1 1.2  94.35-3.5Q 85.6-8.2  80.64999999999999-16.45Q 75.7-24.7  75.7-35L 75.7-35Q 75.7-45.3  80.64999999999999-53.55Q 85.6-61.8  94.35-66.5Q 103.1-71.2  114-71.2L 114-71.2Q 124.9-71.2  133.6-66.5Q 142.3-61.8  147.3-53.55Q 152.3-45.3  152.3-35L 152.3-35Q 152.3-24.7  147.3-16.45Q 142.3-8.2  133.6-3.5Q 124.9 1.2  114 1.2L 114 1.2ZM 114-12.6Q 120.19999999999999-12.6  125.19999999999999-15.45Q 130.2-18.3  133.05-23.4Q 135.89999999999998-28.5  135.89999999999998-35L 135.89999999999998-35Q 135.89999999999998-41.5  133.05-46.6Q 130.2-51.7  125.19999999999999-54.55Q 120.19999999999999-57.4  114-57.4L 114-57.4Q 107.8-57.4  102.8-54.55Q 97.8-51.7  94.94999999999999-46.6Q 92.1-41.5  92.1-35L 92.1-35Q 92.1-28.5  94.94999999999999-23.4Q 97.8-18.3  102.8-15.45Q 107.8-12.6  114-12.6L 114-12.6ZM 164.5 0L 164.5-70L 180.7-70L 180.7-13.2L 215.79999999999998-13.2L 215.79999999999998 0L 164.5 0ZM 224.90000000000003 0L 224.90000000000003-70L 241.10000000000002-70L 241.10000000000002-13.2L 276.20000000000005-13.2L 276.20000000000005 0L 224.90000000000003 0ZM 301.4-13L 339.5-13L 339.5 0L 285.3 0L 285.3-70L 338.2-70L 338.2-57L 301.4-57L 301.4-41.8L 333.9-41.8L 333.9-29.2L 301.4-29.2L 301.4-13ZM 385.7 1.2Q 375 1.2  366.34999999999997-3.45Q 357.7-8.1  352.75-16.35Q 347.79999999999995-24.6  347.79999999999995-35L 347.79999999999995-35Q 347.79999999999995-45.4  352.75-53.65Q 357.7-61.9  366.34999999999997-66.55Q 375-71.2  385.79999999999995-71.2L 385.79999999999995-71.2Q 394.9-71.2  402.25-68Q 409.59999999999997-64.8  414.59999999999997-58.8L 414.59999999999997-58.8L 404.2-49.2Q 397.09999999999997-57.4  386.59999999999997-57.4L 386.59999999999997-57.4Q 380.09999999999997-57.4  375-54.55Q 369.9-51.7  367.04999999999995-46.6Q 364.2-41.5  364.2-35L 364.2-35Q 364.2-28.5  367.04999999999995-23.4Q 369.9-18.3  375-15.45Q 380.09999999999997-12.6  386.59999999999997-12.6L 386.59999999999997-12.6Q 397.09999999999997-12.6  404.2-20.9L 404.2-20.9L 414.59999999999997-11.3Q 409.59999999999997-5.2  402.2-2Q 394.79999999999995 1.2  385.7 1.2L 385.7 1.2ZM 439.3 0L 439.3-56.8L 416.9-56.8L 416.9-70L 477.9-70L 477.9-56.8L 455.5-56.8L 455.5 0L 439.3 0ZM 486.6 0L 486.6-70L 502.8-70L 502.8 0L 486.6 0Z" xlink:href=""/>
</svg>